<?xml version="1.0" standalone="no"?>
<!DOCTYPE svg PUBLIC "-//W3C//DTD SVG 20010904//EN"
 "http://www.w3.org/TR/2001/REC-SVG-20010904/DTD/svg10.dtd">
<svg version="1.0" xmlns="http://www.w3.org/2000/svg"
 width="250.000000pt" height="250.000000pt" viewBox="0 0 250.000000 250.000000"
 preserveAspectRatio="xMidYMid meet">

<g transform="translate(0.000000,250.000000) scale(0.100000,-0.100000)"
fill="#000000" stroke="none">
<path d="M0 1250 l0 -1250 1250 0 1250 0 0 1250 0 1250 -1250 0 -1250 0 0
-1250z m1738 945 c49 -21 79 -51 107 -106 41 -80 113 -131 199 -142 43 -5 43
-25 1 -33 -54 -10 -137 1 -183 25 -54 28 -110 27 -152 -1 -86 -59 -97 -131
-37 -239 125 -223 123 -492 -5 -707 -93 -157 -292 -303 -447 -328 -22 -4 -46
-13 -52 -20 -6 -8 -11 -42 -11 -77 0 -134 87 -232 227 -252 25 -4 48 -11 51
-16 3 -5 24 -19 46 -30 54 -28 38 -39 -42 -28 -36 5 -85 6 -108 2 l-44 -6 -77
79 c-79 81 -135 172 -170 277 -21 61 -36 67 -109 43 -61 -21 -208 -39 -249
-31 l-33 6 0 82 0 82 -44 35 c-46 38 -126 126 -126 139 0 5 28 18 62 31 100
36 175 87 294 201 91 87 128 115 201 151 49 25 123 53 165 62 96 21 158 60
195 123 27 46 28 54 34 218 5 151 9 179 34 254 38 110 78 170 135 199 52 26
87 28 138 7z"/>
<path d="M1610 2162 c-99 -49 -108 -197 -16 -257 24 -16 26 -16 61 24 37 40
83 61 137 61 33 0 41 21 29 73 -22 95 -124 143 -211 99z"/>
<path d="M1850 1991 c0 -13 13 -24 40 -35 54 -21 72 -20 35 2 -16 11 -36 26
-44 35 -18 22 -31 21 -31 -2z"/>
<path d="M1485 1959 c-7 -29 -2 -36 56 -90 35 -33 65 -59 66 -59 2 0 3 13 3
29 0 21 -6 32 -20 36 -22 7 -80 73 -80 92 0 27 -19 21 -25 -8z"/>
<path d="M1466 1883 c-3 -3 -6 -72 -6 -152 0 -135 -2 -150 -25 -200 -14 -30
-41 -69 -61 -88 l-35 -33 48 0 c78 0 182 -27 272 -70 l84 -41 -6 90 c-11 154
-67 292 -168 412 -45 54 -93 92 -103 82z"/>
<path d="M1182 1360 c-119 -31 -206 -83 -302 -180 -108 -107 -172 -226 -194
-357 l-7 -40 73 -36 c93 -46 200 -74 234 -61 24 9 25 12 28 134 2 103 7 139
29 205 37 111 90 196 175 282 80 80 78 83 -36 53z"/>
<path d="M1293 1340 c-108 -83 -206 -236 -237 -370 -9 -36 -16 -109 -16 -164
l0 -98 28 17 c208 133 332 347 332 577 l0 78 -27 0 c-17 0 -49 -16 -80 -40z"/>
<path d="M1430 1315 c0 -76 -23 -196 -51 -268 -49 -125 -165 -263 -281 -334
-32 -20 -58 -38 -58 -41 0 -8 132 8 195 24 205 53 384 217 461 420 13 36 25
86 27 112 2 46 2 47 -48 74 -52 29 -142 60 -207 72 l-38 7 0 -66z"/>
<path d="M671 1009 c-25 -16 -65 -36 -90 -46 -25 -9 -50 -19 -54 -23 -8 -7
108 -130 123 -130 4 0 10 19 14 41 4 23 20 75 35 115 16 41 26 74 22 73 -3 0
-26 -14 -50 -30z"/>
<path d="M678 727 c-3 -13 -2 -40 0 -61 l5 -39 81 7 c90 7 150 20 126 29 -82
28 -122 43 -161 63 l-47 23 -4 -22z"/>
<path d="M1077 643 c-25 -6 -18 -35 34 -142 29 -59 62 -105 111 -157 l71 -74
64 0 c40 0 62 4 58 10 -3 6 -23 10 -44 10 -57 0 -139 47 -183 105 -45 60 -62
117 -56 195 5 64 1 68 -55 53z"/>
</g>
</svg>
